<svg width="32" height="32" viewBox="0 0 32 32" fill="none" xmlns="http://www.w3.org/2000/svg">
<path fill-rule="evenodd" clip-rule="evenodd" d="M31.001 16.0011C31.001 16.1516 30.9988 16.3016 30.9944 16.4509C24.9191 16.527 21.5032 16.9433 19.2232 19.2234C16.9432 21.5034 16.5268 24.9194 16.4507 30.9946C16.3014 30.9991 16.1514 31.0013 16.001 31.0013C15.8505 31.0013 15.7005 30.9991 15.5512 30.9946C15.4752 24.9194 15.0589 21.5034 12.7789 19.2234C10.4987 16.9433 7.08283 16.527 1.00759 16.4509C1.00319 16.3016 1.00098 16.1516 1.00098 16.0011C1.00098 15.8506 1.00319 15.7007 1.00759 15.5512C7.08282 15.4752 10.4987 15.0589 12.7789 12.7788C15.0589 10.4988 15.4752 7.08284 15.5512 1.00759C15.7005 1.00319 15.8505 1.00098 16.001 1.00098C16.1514 1.00098 16.3014 1.00319 16.4507 1.00759C16.5268 7.08284 16.9431 10.4988 19.2232 12.7788C21.5032 15.0589 24.9191 15.4752 30.9944 15.5512C30.9988 15.7007 31.001 15.8506 31.001 16.0011Z" fill="#212121"/>
</svg>
