<svg width="24" height="21" viewBox="0 0 24 21" fill="none" xmlns="http://www.w3.org/2000/svg">
<path d="M21.2856 4.25723C22.4612 4.25723 23.4142 3.30421 23.4142 2.12861C23.4142 0.953013 22.4612 0 21.2856 0C20.11 0 19.157 0.953013 19.157 2.12861C19.157 3.30421 20.11 4.25723 21.2856 4.25723Z" fill="#212121"/>
<path d="M14.9598 4.02246H0V20.6528H4.16382V15.2423H12.1424L15.7827 20.6528H20.4451L16.4309 15.2174C17.6775 15.0179 18.5751 14.5442 19.1237 13.7962C19.6722 13.0482 19.9465 11.8514 19.9465 10.2557V9.00904C19.9465 8.0616 19.8467 7.31362 19.6722 6.74014C19.4976 6.16673 19.1984 5.66801 18.7746 5.21923C18.3258 4.79539 17.8272 4.49618 17.2287 4.29673C16.6303 4.12215 15.8823 4.02246 14.9598 4.02246ZM14.2867 11.5771H4.16382V7.68764H14.2867C14.8601 7.68764 15.2591 7.78733 15.4585 7.96191C15.658 8.13642 15.7827 8.46057 15.7827 8.93429V10.3305C15.7827 10.8292 15.658 11.1533 15.4585 11.3278C15.2591 11.5024 14.8601 11.5771 14.2867 11.5771Z" fill="#212121"/>
</svg>
