<svg width="23" height="14" viewBox="0 0 23 14" fill="none" xmlns="http://www.w3.org/2000/svg">
<path d="M12.2548 13.75C4.56746 13.75 0.182698 8.58859 0 0H3.85072C3.9772 6.3038 6.81605 8.97397 9.06465 9.52452V0H12.6905V5.43669C14.911 5.2027 17.2439 2.72522 18.0309 0H21.6568C21.3602 1.41338 20.7691 2.75162 19.9203 3.93103C19.0715 5.11043 17.9834 6.10562 16.7239 6.85435C18.1298 7.53849 19.3715 8.50683 20.3671 9.69546C21.3628 10.8841 22.0897 12.266 22.5 13.75H18.5087C18.1404 12.461 17.3919 11.3072 16.3569 10.4331C15.3219 9.55904 14.0465 9.00357 12.6905 8.83634V13.75H12.2548Z" fill="#212121"/>
</svg>
